<svg width="100" height="56" viewBox="0 0 100 56" fill="none" xmlns="http://www.w3.org/2000/svg">
<g clip-path="url(#clip0_1051_8125)">
<rect width="100" height="56" rx="6.02985" fill="url(#paint0_linear_1051_8125)"/>
<g filter="url(#filter0_b_1051_8125)">
<rect width="100" height="56" rx="6" fill="white" fill-opacity="0.03"/>
</g>
<path fill-rule="evenodd" clip-rule="evenodd" d="M39.9587 17.5094C44.1121 27.3314 48.1026 36.7682 66.4352 36.2612C83.2569 35.796 93.9264 37.5155 100 40.4888V49.9701C100 53.3003 97.3003 56 93.9701 56H6.02986C2.69966 56 0 53.3003 0 49.9701V6.02985C0 2.69966 2.69966 0 6.02985 0H26.8042C34.2618 4.03726 37.1476 10.8616 39.9587 17.5094Z" fill="white" fill-opacity="0.08"/>
<path fill-rule="evenodd" clip-rule="evenodd" d="M5.19221 0.0577146C2.25849 0.465431 0 2.98389 0 6.02985V49.9702C0 53.3003 2.69966 56 6.02986 56H93.9701C96.2837 56 98.293 54.697 99.3041 52.7848C101.676 44.3612 92.7114 37.2728 61.3433 38.1403C43.8379 38.6244 40.0274 29.6134 36.0614 20.2345C31.7763 10.1012 27.3097 -0.461681 5.19221 0.0577146Z" fill="white" fill-opacity="0.08"/>
<g clip-path="url(#clip1_1051_8125)">
<path d="M45.0477 21.5953L40.2037 33.1517H37.0433L34.6599 23.9279C34.515 23.3605 34.3901 23.1524 33.9492 22.9134C33.2308 22.5234 32.0437 22.158 31 21.9299L31.0709 21.5953H36.1584C36.4909 21.595 36.8125 21.7135 37.0652 21.9295C37.318 22.1455 37.4852 22.4447 37.5367 22.7732L38.7962 29.4609L41.9073 21.5953H45.0477ZM57.4319 29.3792C57.4442 26.3282 53.2139 26.1602 53.2432 24.7974C53.2524 24.3827 53.6471 23.9417 54.5104 23.8292C55.5222 23.7331 56.5411 23.9121 57.4596 24.3472L57.9838 21.8959C57.0896 21.5598 56.1425 21.3859 55.1872 21.3826C52.2318 21.3826 50.1521 22.9551 50.1336 25.2044C50.1151 26.8678 51.6182 27.7944 52.7514 28.3494C53.9169 28.9152 54.3085 29.279 54.3023 29.7847C54.2946 30.5617 53.3742 30.9024 52.514 30.9162C51.0108 30.9394 50.1398 30.5108 49.443 30.187L48.9018 32.7184C49.6002 33.0391 50.889 33.3197 52.2257 33.332C55.366 33.332 57.4211 31.7811 57.4319 29.3792ZM65.2342 33.1517H68L65.5873 21.5953H63.0343C62.7615 21.5928 62.4943 21.6723 62.2672 21.8235C62.0401 21.9747 61.8637 22.1906 61.7609 22.4432L57.2762 33.1517H60.415L61.0394 31.425H64.875L65.2342 33.1517ZM61.8996 29.057L63.4721 24.7172L64.3786 29.057H61.8996ZM49.3196 21.5953L46.8483 33.1517H43.8575L46.3319 21.5953H49.3196Z" fill="white"/>
</g>
</g>
<defs>
<filter id="filter0_b_1051_8125" x="-24.1194" y="-24.1194" width="148.239" height="104.239" filterUnits="userSpaceOnUse" color-interpolation-filters="sRGB">
<feFlood flood-opacity="0" result="BackgroundImageFix"/>
<feGaussianBlur in="BackgroundImageFix" stdDeviation="12.0597"/>
<feComposite in2="SourceAlpha" operator="in" result="effect1_backgroundBlur_1051_8125"/>
<feBlend mode="normal" in="SourceGraphic" in2="effect1_backgroundBlur_1051_8125" result="shape"/>
</filter>
<linearGradient id="paint0_linear_1051_8125" x1="-14.3284" y1="-6.05406" x2="114.797" y2="60.7229" gradientUnits="userSpaceOnUse">
<stop offset="0.122247" stop-color="#52B6FE"/>
<stop offset="0.878935" stop-color="#6154FE"/>
</linearGradient>
<clipPath id="clip0_1051_8125">
<rect width="100" height="56" fill="white"/>
</clipPath>
<clipPath id="clip1_1051_8125">
<rect width="37" height="37" fill="white" transform="translate(31 8.85815)"/>
</clipPath>
</defs>
</svg>
