<svg width="250" height="139" viewBox="0 0 250 139" fill="none" xmlns="http://www.w3.org/2000/svg">
<rect width="250" height="138.06" rx="14.9254" fill="url(#paint0_linear_6_3639)"/>
<g filter="url(#filter0_b_6_3639)">
<rect width="250" height="138.06" rx="14.9254" fill="white" fill-opacity="0.03"/>
</g>
<path fill-rule="evenodd" clip-rule="evenodd" d="M99.8964 43.1669C110.28 67.3817 120.256 90.6467 166.088 89.3967C208.142 88.2498 234.816 92.4891 250 99.8194V123.134C250 131.377 243.318 138.06 235.075 138.06H14.9254C6.68232 138.06 0 131.377 0 123.134V14.9254C0 6.68233 6.68232 0 14.9254 0H67.0099C85.6541 9.95325 92.8686 26.7776 99.8964 43.1669Z" fill="white" fill-opacity="0.08"/>
<path fill-rule="evenodd" clip-rule="evenodd" d="M12.8261 0.146431C5.57702 1.16684 0 7.3948 0 14.9253V123.134C0 131.377 6.68232 138.06 14.9254 138.06H235.075C240.788 138.06 245.751 134.85 248.26 130.135C254.19 109.367 231.78 91.891 153.358 94.0297C109.594 95.2233 100.068 73.0081 90.1532 49.8858C79.4306 24.8803 68.2531 -1.18605 12.8261 0.146431Z" fill="white" fill-opacity="0.08"/>
<g clip-path="url(#clip0_6_3639)">
<path d="M212.083 22.6381L207.095 34.5365H203.841L201.387 25.0397C201.238 24.4556 201.11 24.2413 200.656 23.9953C199.916 23.5937 198.694 23.2175 197.619 22.9826L197.692 22.6381H202.93C203.273 22.6378 203.604 22.7598 203.864 22.9822C204.124 23.2046 204.296 23.5126 204.349 23.8508L205.646 30.7365L208.849 22.6381H212.083ZM224.833 30.6524C224.846 27.5111 220.491 27.3381 220.521 25.9349C220.53 25.508 220.937 25.054 221.825 24.9381C222.867 24.8392 223.916 25.0234 224.862 25.4714L225.402 22.9476C224.481 22.6015 223.506 22.4225 222.522 22.4191C219.479 22.4191 217.338 24.0381 217.319 26.354C217.3 28.0667 218.848 29.0207 220.014 29.5921C221.214 30.1746 221.618 30.5492 221.611 31.0699C221.603 31.8699 220.656 32.2207 219.77 32.2349C218.222 32.2587 217.325 31.8175 216.608 31.4841L216.051 34.0905C216.77 34.4207 218.097 34.7095 219.473 34.7222C222.706 34.7222 224.822 33.1254 224.833 30.6524ZM232.867 34.5365H235.714L233.23 22.6381H230.602C230.321 22.6355 230.046 22.7174 229.812 22.873C229.578 23.0287 229.396 23.251 229.291 23.5111L224.673 34.5365H227.905L228.548 32.7587H232.497L232.867 34.5365ZM229.433 30.3207L231.052 25.8524L231.986 30.3207H229.433ZM216.481 22.6381L213.937 34.5365H210.857L213.405 22.6381H216.481Z" fill="white"/>
</g>
<defs>
<filter id="filter0_b_6_3639" x="-59.7015" y="-59.7015" width="369.403" height="257.463" filterUnits="userSpaceOnUse" color-interpolation-filters="sRGB">
<feFlood flood-opacity="0" result="BackgroundImageFix"/>
<feGaussianBlur in="BackgroundImageFix" stdDeviation="29.8507"/>
<feComposite in2="SourceAlpha" operator="in" result="effect1_backgroundBlur_6_3639"/>
<feBlend mode="normal" in="SourceGraphic" in2="effect1_backgroundBlur_6_3639" result="shape"/>
</filter>
<linearGradient id="paint0_linear_6_3639" x1="-35.8209" y1="-14.9254" x2="285.075" y2="153.358" gradientUnits="userSpaceOnUse">
<stop offset="0.122247" stop-color="#52B6FE"/>
<stop offset="0.878935" stop-color="#6154FE"/>
</linearGradient>
<clipPath id="clip0_6_3639">
<rect width="38.0952" height="38.0952" fill="white" transform="translate(197.619 9.5238)"/>
</clipPath>
</defs>
</svg>
