<svg width="32" height="32" viewBox="0 0 32 32" fill="none" xmlns="http://www.w3.org/2000/svg">
<path fill-rule="evenodd" clip-rule="evenodd" d="M11.5985 20.0672C11.8547 19.8109 12.2703 19.8109 12.5265 20.0672L16 23.5407L19.4735 20.0672C19.7297 19.8109 20.1453 19.8109 20.4015 20.0672C20.6578 20.3235 20.6578 20.739 20.4015 20.9953L16.464 24.9328C16.2078 25.1891 15.7922 25.1891 15.536 24.9328L11.5985 20.9953C11.3422 20.739 11.3422 20.3235 11.5985 20.0672Z" fill="#FCFCFC"/>
<path fill-rule="evenodd" clip-rule="evenodd" d="M15.536 9.06721C15.7922 8.81093 16.2078 8.81093 16.464 9.06721L20.4015 13.0047C20.6578 13.261 20.6578 13.6765 20.4015 13.9328C20.1453 14.1891 19.7297 14.1891 19.4735 13.9328L16 10.4593L12.5265 13.9328C12.2703 14.1891 11.8547 14.1891 11.5985 13.9328C11.3422 13.6765 11.3422 13.261 11.5985 13.0047L15.536 9.06721Z" fill="#FCFCFC"/>
</svg>
