<svg width="24" height="24" viewBox="0 0 24 24" fill="none" xmlns="http://www.w3.org/2000/svg">
<path fill-rule="evenodd" clip-rule="evenodd" d="M20.7803 3.2196C21.0732 3.51246 21.0733 3.98733 20.7804 4.28026L16.0619 9H19.5C19.9142 9 20.25 9.33579 20.25 9.75C20.25 10.1642 19.9142 10.5 19.5 10.5H14.25C13.8358 10.5 13.5 10.1642 13.5 9.75V4.5C13.5 4.08579 13.8358 3.75 14.25 3.75C14.6642 3.75 15 4.08579 15 4.5V7.94054L19.7196 3.21974C20.0125 2.92681 20.4873 2.92675 20.7803 3.2196ZM3.75 14.25C3.75 13.8358 4.08579 13.5 4.5 13.5H9.75C10.1642 13.5 10.5 13.8358 10.5 14.25V19.5C10.5 19.9142 10.1642 20.25 9.75 20.25C9.33579 20.25 9 19.9142 9 19.5V16.0595L4.2804 20.7803C3.98754 21.0732 3.51267 21.0733 3.21974 20.7804C2.92681 20.4875 2.92675 20.0127 3.2196 19.7197L7.93814 15H4.5C4.08579 15 3.75 14.6642 3.75 14.25Z" fill="var(--fill-color, #000000)"/>
</svg>
