<svg width="32" height="32" viewBox="0 0 32 32" fill="none" xmlns="http://www.w3.org/2000/svg">
<g opacity="0.5">
<path d="M5.29423 1H13.7736L20.9517 8.48517V23.0413C20.9517 24.859 19.4752 26.3356 17.6526 26.3356H5.29427C3.47656 26.3356 2 24.859 2 23.0413V4.29427C1.99997 2.47656 3.47653 1 5.29423 1V1Z" fill="url(#paint0_linear_103_5193)"/>
<path opacity="0.302" fill-rule="evenodd" clip-rule="evenodd" d="M13.7637 1V8.42672H20.9516L13.7637 1Z" fill="white"/>
</g>
<path d="M12.0542 6.7583H20.1481L27 13.9032V27.7977C27 29.5328 25.5905 30.9423 23.8508 30.9423H12.0542C10.3191 30.9423 8.90967 29.5328 8.90967 27.7977V9.90283C8.90964 8.16774 10.3191 6.7583 12.0542 6.7583V6.7583Z" fill="url(#paint1_linear_103_5193)"/>
<path opacity="0.302" fill-rule="evenodd" clip-rule="evenodd" d="M20.1387 6.7583V13.8474H26.9999L20.1387 6.7583Z" fill="white"/>
<defs>
<linearGradient id="paint0_linear_103_5193" x1="1.72807" y1="0.592054" x2="26.6189" y2="8.50165" gradientUnits="userSpaceOnUse">
<stop stop-color="#4092FF"/>
<stop offset="1" stop-color="#0058CC"/>
</linearGradient>
<linearGradient id="paint1_linear_103_5193" x1="8.65009" y1="6.3689" x2="32.4095" y2="13.919" gradientUnits="userSpaceOnUse">
<stop stop-color="#4092FF"/>
<stop offset="1" stop-color="#0058CC"/>
</linearGradient>
</defs>
</svg>
