<svg width="18" height="18" viewBox="0 0 18 18" fill="none" xmlns="http://www.w3.org/2000/svg">
<g clip-path="url(#clip0_30293_882)">
<path d="M10.125 8.375H15.0469C15.0842 8.375 15.1199 8.38982 15.1463 8.41619C15.1727 8.44256 15.1875 8.47833 15.1875 8.51562V10.25H11.25C10.0074 10.25 9 11.2574 9 12.5V15.5C9 16.2826 8.99968 16.9719 9.60594 17.375H5.0625C4.46576 17.375 3.89347 17.1379 3.47151 16.716C3.04955 16.294 2.8125 15.7217 2.8125 15.125V3.875C2.8125 3.27826 3.04955 2.70597 3.47151 2.28401C3.89347 1.86205 4.46576 1.625 5.0625 1.625H8.29688C8.33417 1.625 8.36994 1.63982 8.39631 1.66619C8.42268 1.69256 8.4375 1.72833 8.4375 1.76562V6.6875C8.4375 7.13505 8.61529 7.56428 8.93176 7.88074C9.24822 8.19721 9.67745 8.375 10.125 8.375Z" fill="#8585AD"/>
<path d="M9.68238 2.0743L14.7382 7.13012C14.748 7.13995 14.7546 7.15245 14.7573 7.16605C14.76 7.17965 14.7586 7.19374 14.7533 7.20656C14.748 7.21937 14.7391 7.23033 14.7275 7.23806C14.716 7.24579 14.7025 7.24994 14.6886 7.25H10.125C9.97582 7.25 9.83274 7.19074 9.72725 7.08525C9.62176 6.97976 9.5625 6.83668 9.5625 6.6875V2.12387C9.56256 2.11 9.56671 2.09647 9.57444 2.08496C9.58217 2.07345 9.59313 2.06448 9.60594 2.05919C9.61876 2.05389 9.63285 2.0525 9.64645 2.05518C9.66005 2.05787 9.67255 2.06452 9.68238 2.0743Z" fill="#8585AD"/>
<path fill-rule="evenodd" clip-rule="evenodd" d="M13.2563 11.9112C13.4861 11.6963 13.8586 11.6963 14.0883 11.9112L16.875 14.5185C17.1047 14.7335 17.1047 15.082 16.875 15.2969C16.6453 15.5119 16.2728 15.5119 16.043 15.2969L14.2606 13.6293V17.9496C14.2606 18.2536 13.9972 18.5 13.6723 18.5C13.3474 18.5 13.084 18.2536 13.084 17.9496V13.6293L11.3016 15.2969C11.0719 15.5119 10.6994 15.5119 10.4696 15.2969C10.2399 15.082 10.2399 14.7335 10.4696 14.5185L13.2563 11.9112Z" fill="#8585AD"/>
</g>
<defs>
<clipPath id="clip0_30293_882">
<rect width="18" height="18" fill="white" transform="translate(0 0.5)"/>
</clipPath>
</defs>
</svg>
