<svg width="24" height="24" viewBox="0 0 24 24" fill="none" xmlns="http://www.w3.org/2000/svg">
<path fill-rule="evenodd" clip-rule="evenodd" d="M12 5C12.4734 5 12.8571 5.35817 12.8571 5.8V14.2686L16.5368 10.8343C16.8715 10.5219 17.4142 10.5219 17.7489 10.8343C18.0837 11.1467 18.0837 11.6533 17.7489 11.9657L12.6061 16.7657C12.2714 17.0781 11.7286 17.0781 11.3939 16.7657L6.25105 11.9657C5.91632 11.6533 5.91632 11.1467 6.25105 10.8343C6.58579 10.5219 7.1285 10.5219 7.46323 10.8343L11.1429 14.2686V5.8C11.1429 5.35817 11.5266 5 12 5Z" fill="var(--fill-color, #000000)"/>
<path d="M3.2002 20V17C3.2002 16.5582 3.55817 16.2002 4 16.2002C4.44183 16.2002 4.7998 16.5582 4.7998 17V20C4.7998 20.6627 5.33726 21.2002 6 21.2002H18C18.6627 21.2002 19.2002 20.6627 19.2002 20V17C19.2002 16.5582 19.5582 16.2002 20 16.2002C20.4418 16.2002 20.7998 16.5582 20.7998 17V20C20.7998 21.5464 19.5464 22.7998 18 22.7998H6C4.4536 22.7998 3.2002 21.5464 3.2002 20Z" fill="var(--fill-color, #000000)"/>
</svg>
