<svg width="24" height="24" viewBox="0 0 24 24" fill="none" xmlns="http://www.w3.org/2000/svg">
<path fill-rule="evenodd" clip-rule="evenodd" d="M14.25 3.75C14.25 3.33579 14.5858 3 15 3H20.25C20.6642 3 21 3.33579 21 3.75V9C21 9.41421 20.6642 9.75 20.25 9.75C19.8358 9.75 19.5 9.41421 19.5 9V5.55946L14.7804 10.2803C14.4875 10.5732 14.0127 10.5733 13.7197 10.2804C13.4268 9.98754 13.4267 9.51267 13.7196 9.21974L18.4381 4.5H15C14.5858 4.5 14.25 4.16421 14.25 3.75ZM10.2803 13.7196C10.5732 14.0125 10.5733 14.4873 10.2804 14.7803L5.56186 19.5H9C9.41421 19.5 9.75 19.8358 9.75 20.25C9.75 20.6642 9.41421 21 9 21H3.75C3.33579 21 3 20.6642 3 20.25V15C3 14.5858 3.33579 14.25 3.75 14.25C4.16421 14.25 4.5 14.5858 4.5 15V18.4405L9.2196 13.7197C9.51246 13.4268 9.98733 13.4267 10.2803 13.7196Z" fill="var(--fill-color, #000000)"/>
</svg>
