<svg width="24" height="24" viewBox="0 0 24 24" fill="none" xmlns="http://www.w3.org/2000/svg">
<path d="M23 17.622C22.9998 18.2122 22.5212 18.6915 21.9303 18.6917C21.3398 18.6915 20.8608 18.2125 20.8606 17.622V15.6511L13.8272 22.6866C13.4358 23.0781 12.8153 23.1031 12.3946 22.7601L12.3833 22.751L12.3245 22.6979L12.3132 22.6877C11.8955 22.27 11.8957 21.5913 12.3132 21.1737L19.3465 14.1405H17.379C16.7882 14.1405 16.3093 13.6605 16.3093 13.0697C16.3095 12.479 16.7883 12 17.379 12H21.9303C22.5212 12.0002 22.9998 12.4795 23 13.0697V17.622Z" fill="var(--fill-color, #000000)"/>
<path d="M11.9841 4.5C14.1561 4.5001 16.359 5.1819 18.3542 6.47168C19.8138 7.41425 21.1461 8.66138 22.2585 10.1191C22.0198 10.0567 21.7715 10.0179 21.5164 10.0049L21.3269 10H17.3953C16.9509 10 16.525 10.079 16.1306 10.2236C16.0226 9.97252 15.8942 9.72941 15.741 9.5C15.2465 8.76001 14.5437 8.18336 13.7214 7.84277C12.8992 7.50222 11.9947 7.4133 11.1218 7.58691C10.2489 7.76055 9.44647 8.18902 8.81714 8.81836C8.18802 9.44763 7.75929 10.2493 7.58569 11.1221C7.41208 11.9949 7.50201 12.8995 7.84253 13.7217C8.18312 14.5439 8.75974 15.2467 9.49975 15.7412C10.2398 16.2357 11.1097 16.5 11.9998 16.5C12.5524 16.4993 13.0938 16.3955 13.6003 16.2021L11.0759 18.7285C10.8675 18.937 10.6896 19.1645 10.5417 19.4053C8.82017 19.1832 7.16044 18.5632 5.59448 17.5488C3.81892 16.4 2.22501 14.7683 0.987058 12.8311C0.826344 12.5817 0.74345 12.2898 0.748777 11.9932C0.754117 11.6966 0.847817 11.4084 1.01733 11.165C2.51967 9.01113 4.24971 7.33754 6.15893 6.19238C8.03099 5.06943 9.99116 4.5 11.9841 4.5Z" fill="var(--fill-color, #000000)"/>
<path d="M11.9998 9C13.3187 9.00007 14.4367 9.85207 14.8386 11.0352C14.1913 11.6622 13.7739 12.5252 13.7253 13.4854L13.7214 13.6738L13.7253 13.8633C13.7346 14.0459 13.7587 14.2247 13.7937 14.3994C13.2929 14.7745 12.6735 15 11.9998 15C10.3429 15 8.99975 13.6569 8.99975 12C8.99975 10.3431 10.3429 9 11.9998 9Z" fill="var(--fill-color, #000000)"/>
</svg>
