<svg width="24" height="24" viewBox="0 0 24 24" fill="none" xmlns="http://www.w3.org/2000/svg">
<path fill-rule="evenodd" clip-rule="evenodd" d="M12.387 7.46296C12.387 7.12442 12.6615 6.85 13 6.85H16.537C16.8756 6.85 17.15 7.12442 17.15 7.46296V11C17.15 11.3385 16.8756 11.613 16.537 11.613C16.1985 11.613 15.9241 11.3385 15.9241 11V8.94148L14.0193 10.8426L8.9473 15.9241H11C11.3385 15.9241 11.613 16.1985 11.613 16.537C11.613 16.8756 11.3385 17.15 11 17.15H7.46296C7.12444 17.15 6.85 16.8756 6.85 16.537V13C6.85 12.6615 7.12444 12.387 7.46296 12.387C7.80149 12.387 8.07593 12.6615 8.07593 13V15.0577L15.0522 8.07593H13C12.6615 8.07593 12.387 7.80151 12.387 7.46296Z" fill="var(--fill-color, #000000)"/>
<path fill-rule="evenodd" clip-rule="evenodd" d="M20.7729 20.7729C21.4585 20.0872 21.8438 19.1572 21.8438 18.1875V5.8125C21.8438 4.8428 21.4585 3.91282 20.7729 3.22714C20.0872 2.54146 19.1572 2.15625 18.1875 2.15625H5.8125C4.8428 2.15625 3.91282 2.54146 3.22714 3.22714C2.54146 3.91282 2.15625 4.8428 2.15625 5.8125V18.1875C2.15625 19.1572 2.54146 20.0872 3.22714 20.7729C3.91282 21.4585 4.8428 21.8438 5.8125 21.8438H18.1875C19.1572 21.8438 20.0872 21.4585 20.7729 20.7729ZM5.8125 19.7812H18.1875C18.6102 19.7812 19.0156 19.6133 19.3145 19.3145C19.6133 19.0156 19.7812 18.6102 19.7812 18.1875V5.8125C19.7812 5.38981 19.6133 4.98443 19.3145 4.68555C19.0156 4.38666 18.6102 4.21875 18.1875 4.21875H5.8125C5.38981 4.21875 4.98444 4.38666 4.68555 4.68555C4.38666 4.98444 4.21875 5.38981 4.21875 5.8125V18.1875C4.21875 18.6102 4.38666 19.0156 4.68555 19.3145C4.98443 19.6133 5.38981 19.7812 5.8125 19.7812Z" fill="var(--fill-color, #000000)"/>
</svg>
