<svg width="24" height="24" viewBox="0 0 24 24" fill="none" xmlns="http://www.w3.org/2000/svg">
<path fill-rule="evenodd" clip-rule="evenodd" d="M12.5 2C9.37039 2 6.83333 4.61072 6.83333 7.83122V10.6897C5.26853 10.6897 4 11.9865 4 13.5862V20.1034C4 21.7032 5.26853 23 6.83333 23H18.1667C19.7315 23 21 21.7032 21 20.1034V13.5862C21 11.9865 19.7315 10.6897 18.1667 10.6897V7.83122C18.1667 4.61072 15.6296 2 12.5 2ZM15.963 10.6897V7.83122C15.963 6.04205 14.2387 4.26769 12.5 4.26769C10.7613 4.26769 9.03704 6.04205 9.03704 7.83122V10.6897H15.963Z" fill="var(--fill-color, #000000)"/>
</svg>
