<svg width="24" height="24" viewBox="0 0 24 24" fill="none" xmlns="http://www.w3.org/2000/svg">
<path d="M12.5 2C9.37039 2 6.83333 4.61072 6.83333 7.83122V10.6897C5.26853 10.6897 4 11.9865 4 13.5862V20.1034C4 21.7032 5.26853 23 6.83333 23H18.1667C19.7315 23 21 21.7032 21 20.1034V13.5862C21 11.9865 19.7315 10.6897 18.1667 10.6897H15.963H9.03704V7.83122C9.03704 6.04205 10.7613 4.26769 12.5 4.26769C13.689 4.26769 14.8713 5.09751 15.5 6.19439C15.5 6.19439 16.1567 6.92167 17 6.5C17.8433 6.07833 17.5744 5.23297 17.5744 5.23297C16.646 3.3165 14.7224 2 12.5 2Z" fill="var(--fill-color, #000000)"/>
</svg>
