<svg width="40" height="24" viewBox="0 0 40 24" fill="none" xmlns="http://www.w3.org/2000/svg">
<g clip-path="url(#clip0_874_3420)">
<path d="M40 0H0V24H40V0Z" fill="#10427A"/>
<path d="M23.0913 5.35907H17.689V15.3491H23.0913V5.35907Z" fill="#FF5F00"/>
<path d="M18.0318 10.3541C18.0318 8.32431 18.9579 6.52398 20.3814 5.35907C19.3352 4.51186 18.0147 4 16.574 4C13.1611 4 10.3999 6.84169 10.3999 10.3541C10.3999 13.8665 13.1611 16.7082 16.574 16.7082C18.0147 16.7082 19.3352 16.1963 20.3814 15.3491C18.9579 14.2018 18.0318 12.3839 18.0318 10.3541Z" fill="#EB001B"/>
<path d="M30.38 10.3541C30.38 13.8665 27.6187 16.7082 24.2058 16.7082C22.7652 16.7082 21.4446 16.1963 20.3984 15.3491C21.8391 14.1842 22.748 12.3839 22.748 10.3541C22.748 8.32431 21.8219 6.52398 20.3984 5.35907C21.4446 4.51186 22.7652 4 24.2058 4C27.6187 4 30.38 6.85934 30.38 10.3541Z" fill="#F79E1B"/>
<path d="M13.3142 20.7647V19.7059C13.3142 19.3 13.0475 19.0353 12.5904 19.0353C12.3618 19.0353 12.1142 19.1059 11.9428 19.3353C11.8094 19.1412 11.6189 19.0353 11.3332 19.0353C11.1428 19.0353 10.9523 19.0882 10.7999 19.2823V19.0706H10.3999V20.7647H10.7999V19.8294C10.7999 19.5294 10.9713 19.3882 11.238 19.3882C11.5047 19.3882 11.638 19.5471 11.638 19.8294V20.7647H12.038V19.8294C12.038 19.5294 12.2285 19.3882 12.4761 19.3882C12.7428 19.3882 12.8761 19.5471 12.8761 19.8294V20.7647H13.3142ZM19.238 19.0706H18.5904V18.5588H18.1904V19.0706H17.8285V19.4059H18.1904V20.1823C18.1904 20.5706 18.3618 20.8 18.8189 20.8C18.9904 20.8 19.1809 20.7471 19.3142 20.6765L19.1999 20.3588C19.0856 20.4294 18.9523 20.4471 18.857 20.4471C18.6666 20.4471 18.5904 20.3412 18.5904 20.1647V19.4059H19.238V19.0706ZM22.6285 19.0353C22.3999 19.0353 22.2475 19.1412 22.1523 19.2823V19.0706H21.7523V20.7647H22.1523V19.8118C22.1523 19.5294 22.2856 19.3706 22.5332 19.3706C22.6094 19.3706 22.7047 19.3882 22.7809 19.4059L22.8951 19.0529C22.819 19.0353 22.7047 19.0353 22.6285 19.0353ZM17.5047 19.2118C17.3142 19.0882 17.0475 19.0353 16.7618 19.0353C16.3047 19.0353 15.9999 19.2471 15.9999 19.5823C15.9999 19.8647 16.2285 20.0235 16.6285 20.0765L16.819 20.0941C17.0285 20.1294 17.1428 20.1823 17.1428 20.2706C17.1428 20.3941 16.9904 20.4823 16.7237 20.4823C16.457 20.4823 16.2475 20.3941 16.1142 20.3059L15.9237 20.5882C16.1332 20.7294 16.419 20.8 16.7047 20.8C17.238 20.8 17.5428 20.5706 17.5428 20.2529C17.5428 19.9529 17.2951 19.7941 16.9142 19.7412L16.7237 19.7235C16.5523 19.7059 16.419 19.6706 16.419 19.5647C16.419 19.4412 16.5523 19.3706 16.7618 19.3706C16.9904 19.3706 17.219 19.4588 17.3332 19.5118L17.5047 19.2118ZM28.1332 19.0353C27.9047 19.0353 27.7523 19.1412 27.657 19.2823V19.0706H27.257V20.7647H27.657V19.8118C27.657 19.5294 27.7904 19.3706 28.038 19.3706C28.1142 19.3706 28.2094 19.3882 28.2856 19.4059L28.3999 19.0529C28.3237 19.0353 28.2094 19.0353 28.1332 19.0353ZM23.0285 19.9176C23.0285 20.4294 23.4094 20.8 23.9999 20.8C24.2666 20.8 24.457 20.7471 24.6475 20.6059L24.457 20.3059C24.3047 20.4118 24.1523 20.4647 23.9809 20.4647C23.657 20.4647 23.4285 20.2529 23.4285 19.9176C23.4285 19.6 23.657 19.3882 23.9809 19.3706C24.1523 19.3706 24.3047 19.4235 24.457 19.5294L24.6475 19.2294C24.457 19.0882 24.2666 19.0353 23.9999 19.0353C23.4094 19.0353 23.0285 19.4059 23.0285 19.9176ZM26.7237 19.9176V19.0706H26.3237V19.2823C26.1904 19.1235 25.9999 19.0353 25.7523 19.0353C25.238 19.0353 24.838 19.4059 24.838 19.9176C24.838 20.4294 25.238 20.8 25.7523 20.8C26.0189 20.8 26.2094 20.7118 26.3237 20.5529V20.7647H26.7237V19.9176ZM25.257 19.9176C25.257 19.6176 25.4666 19.3706 25.8094 19.3706C26.1332 19.3706 26.3618 19.6 26.3618 19.9176C26.3618 20.2176 26.1332 20.4647 25.8094 20.4647C25.4666 20.4471 25.257 20.2176 25.257 19.9176ZM20.4761 19.0353C19.9428 19.0353 19.5618 19.3882 19.5618 19.9176C19.5618 20.4471 19.9428 20.8 20.4951 20.8C20.7618 20.8 21.0285 20.7294 21.238 20.5706L21.0475 20.3059C20.8951 20.4118 20.7047 20.4823 20.5142 20.4823C20.2666 20.4823 20.019 20.3765 19.9618 20.0765H21.3142V19.9353C21.3332 19.3882 20.9904 19.0353 20.4761 19.0353ZM20.4761 19.3529C20.7237 19.3529 20.8951 19.4941 20.9332 19.7588H19.9809C20.019 19.5294 20.1904 19.3529 20.4761 19.3529ZM30.3999 19.9176V18.4H29.9999V19.2823C29.8666 19.1235 29.6761 19.0353 29.4285 19.0353C28.9142 19.0353 28.5142 19.4059 28.5142 19.9176C28.5142 20.4294 28.9142 20.8 29.4285 20.8C29.6951 20.8 29.8856 20.7118 29.9999 20.5529V20.7647H30.3999V19.9176ZM28.9332 19.9176C28.9332 19.6176 29.1428 19.3706 29.4856 19.3706C29.8094 19.3706 30.038 19.6 30.038 19.9176C30.038 20.2176 29.8094 20.4647 29.4856 20.4647C29.1428 20.4471 28.9332 20.2176 28.9332 19.9176ZM15.5618 19.9176V19.0706H15.1618V19.2823C15.0285 19.1235 14.838 19.0353 14.5904 19.0353C14.0761 19.0353 13.6761 19.4059 13.6761 19.9176C13.6761 20.4294 14.0761 20.8 14.5904 20.8C14.857 20.8 15.0475 20.7118 15.1618 20.5529V20.7647H15.5618V19.9176ZM14.0761 19.9176C14.0761 19.6176 14.2856 19.3706 14.6285 19.3706C14.9523 19.3706 15.1809 19.6 15.1809 19.9176C15.1809 20.2176 14.9523 20.4647 14.6285 20.4647C14.2856 20.4471 14.0761 20.2176 14.0761 19.9176Z" fill="white"/>
</g>
<defs>
<clipPath id="clip0_874_3420">
<path d="M0 4.8C0 2.14903 2.14903 0 4.8 0H35.2C37.851 0 40 2.14903 40 4.8V19.2C40 21.851 37.851 24 35.2 24H4.8C2.14903 24 0 21.851 0 19.2V4.8Z" fill="white"/>
</clipPath>
</defs>
</svg>
