<svg width="40" height="24" viewBox="0 0 40 24" fill="none" xmlns="http://www.w3.org/2000/svg">
<g clip-path="url(#clip0_874_3431)">
<path d="M40 0H0V24H40V0Z" fill="white"/>
<g clip-path="url(#clip1_874_3431)">
<path d="M24.5207 7.00006C22.3928 7.00006 20.4911 8.13256 20.4911 10.2245C20.4911 12.6238 23.8637 12.7895 23.8637 13.9949C23.8637 14.5025 23.2973 14.9568 22.3295 14.9568C20.9564 14.9568 19.9301 14.322 19.9301 14.322L19.4909 16.4333C19.4909 16.4333 20.6732 16.9696 22.2428 16.9696C24.5693 16.9696 26.4002 15.7816 26.4002 13.6537C26.4002 11.1183 23.0135 10.9575 23.0135 9.83886C23.0135 9.44123 23.4785 9.00573 24.4433 9.00573C25.532 9.00573 26.42 9.46741 26.42 9.46741L26.8499 7.42848C26.8499 7.42848 25.8833 7.00006 24.5204 7.00006H24.5207ZM5.0516 7.15406L5 7.46175C5 7.46175 5.8952 7.62991 6.7016 7.96563C7.7399 8.35031 7.8137 8.57453 7.9886 9.26999L9.8939 16.8106H12.4481L16.3829 7.15406H13.8347L11.3063 13.7196L10.2746 8.15412C10.1801 7.51719 9.7007 7.15375 9.1142 7.15375H5.0519L5.0516 7.15406ZM17.4077 7.15406L15.4088 16.8106H17.8388L19.8305 7.15406H17.4077ZM30.9605 7.15406C30.3746 7.15406 30.0641 7.47622 29.8364 8.03893L26.2763 16.8106H28.8245L29.3174 15.3486H32.4218L32.7215 16.8106H34.97L33.0086 7.15406H30.9605ZM31.292 9.76309L32.0474 13.3867H30.0239L31.2923 9.76309H31.292Z" fill="#1434CB"/>
</g>
</g>
<defs>
<clipPath id="clip0_874_3431">
<path d="M0 4.8C0 2.14903 2.14903 0 4.8 0H35.2C37.851 0 40 2.14903 40 4.8V19.2C40 21.851 37.851 24 35.2 24H4.8C2.14903 24 0 21.851 0 19.2V4.8Z" fill="white"/>
</clipPath>
<clipPath id="clip1_874_3431">
<rect width="30" height="10" fill="white" transform="translate(4.6665 6.66669)"/>
</clipPath>
</defs>
</svg>
