<svg width="78" height="49" viewBox="0 0 78 49" fill="none" xmlns="http://www.w3.org/2000/svg">
<path d="M24.4574 13.2697C27.8285 6.35676 34.9411 0 45.6099 0C46.1255 0 46.6411 0.0132432 47.1831 0.0397297C52.8679 0.556216 63.4309 4.33054 60.1523 9.41595C59.0285 10.9257 56.8604 11.217 55.3665 10.0649C50.7262 5.91973 41.6041 5.6946 36.977 8.97892C30.3536 12.7665 30.9221 18.2757 28.3177 19.0703C26.5991 19.4676 24.9333 20.1165 23.4394 21.0435C21.7472 22.0897 20.2929 23.4273 19.1031 25.0297C18.6007 25.8641 17.7546 26.5395 16.7102 26.4203C15.1238 26.3143 13.3787 26.1819 10.999 27.5592C5.40685 30.9495 6.39837 37.8889 11.4221 40.7362C12.7574 41.4911 14.2777 41.8619 15.8245 41.8619H23.5187C28.0004 41.9546 27.9211 48.4703 23.4394 48.51H14.9916C14.2777 48.51 13.577 48.4438 12.8763 48.2981C12.8631 48.2981 12.8367 48.2981 12.8102 48.2849C-4.34976 44.5238 -3.37146 21.1097 14.7668 19.7059C17.3316 16.7527 20.716 14.5014 24.4441 13.2432M46.2577 21.507L31.1865 43.3716C30.1421 44.8946 30.5387 46.9605 32.0723 47.9935C33.6058 49.0265 35.7079 48.6292 36.7655 47.1195L51.8367 25.2549C55.5119 19.6265 64.0919 19.8384 68.3092 24.6986C76.6513 33.9292 64.7926 47.2916 53.5818 39.69C49.9858 37.1738 46.0726 42.5373 49.6421 45.0932C51.5591 46.4441 55.3401 48.563 60.3109 48.563C77.9997 48.02 81.9658 29.0822 73.3594 20.2886C70.0146 16.4084 65.0041 14.4219 60.0333 14.4219C54.6658 14.4219 49.3513 16.7395 46.2445 21.507" fill="url(#paint0_linear_16_7884)"/>
<defs>
<linearGradient id="paint0_linear_16_7884" x1="39.1055" y1="-21.9573" x2="39.1984" y2="98.0927" gradientUnits="userSpaceOnUse">
<stop stop-color="#53C9FF"/>
<stop offset="1" stop-color="#006EFF"/>
</linearGradient>
</defs>
</svg>
