<svg width="78" height="49" viewBox="0 0 78 49" fill="none" xmlns="http://www.w3.org/2000/svg">
<path d="M24.1623 13.3866C27.5756 6.44072 34.7054 0 45.476 0C46.007 0 46.5126 0 47.0688 0.0505155C52.8081 0.580928 63.4775 4.36959 60.1654 9.49691C59.0277 11.0124 56.8533 11.3155 55.3363 10.1536C50.6591 5.96082 41.4307 5.75876 36.7534 9.06753C30.0533 12.8814 30.6348 18.4381 28.0054 19.2464C26.2608 19.6505 24.5922 20.3072 23.0752 21.2418C21.356 22.3026 19.8896 23.6412 18.7012 25.2577C18.1956 26.0912 17.336 26.7732 16.2994 26.6722C14.7065 26.5711 12.9367 26.4448 10.5348 27.8088C4.8967 31.2186 5.88275 38.215 10.9646 41.0943C12.3046 41.8521 13.8469 42.2309 15.4145 42.2309H23.1763C27.7021 42.332 27.6262 48.899 23.1005 48.9242H14.5801C13.8721 48.9242 13.0884 48.8485 12.4058 48.6969C-4.93841 44.9082 -3.92708 21.3175 14.3779 19.9031C16.982 16.9227 20.3952 14.6747 24.1623 13.3866ZM46.184 21.7469L30.9888 43.7464C29.9269 45.2871 30.3314 47.3582 31.899 48.3938C33.4665 49.4294 35.565 49.0505 36.6269 47.5098L51.8473 25.4851C55.5639 19.8273 64.236 20.0294 68.4836 24.9294C76.9028 34.2242 64.9186 47.6866 53.5918 40.0335C49.9511 37.4825 46.007 42.9129 49.6225 45.4892C51.544 46.8531 55.3869 49 60.393 49C78.2681 48.4443 82.2881 29.3747 73.5655 20.5093C70.1775 16.5943 65.1209 14.599 60.1149 14.599C54.7043 14.599 49.3191 16.9479 46.184 21.7469Z" fill="white"/>
</svg>
