<svg width="80" height="84" viewBox="0 0 80 84" fill="none" xmlns="http://www.w3.org/2000/svg">
<path fill-rule="evenodd" clip-rule="evenodd" d="M44.3397 0.0338443C52.2914 -0.517448 58.92 5.77422 64.9115 11.0305C70.42 15.8631 74.5171 21.838 77.0367 28.7188C79.6406 35.8301 80.7557 43.2888 79.4553 50.7494C77.9874 59.1712 75.4695 67.7466 69.2177 73.5781C62.5253 79.8207 53.362 85.0427 44.3397 83.5044C35.5463 82.0052 31.2565 72.3345 24.9465 66.0301C19.8401 60.9282 14.6596 56.3896 10.9835 50.1778C6.28582 42.24 -2.68676 33.7373 0.776231 25.1885C4.29903 16.492 17.6151 18.4384 25.7413 13.7462C32.5789 9.79797 36.4628 0.579958 44.3397 0.0338443Z" fill="#EAF1FA"/>
<path d="M13.3479 17.8264C13.3479 14.4799 16.0607 11.7671 19.4072 11.7671C19.4072 11.7671 34.731 11.7671 38.6827 11.7671C42.6344 11.7671 44.8298 17.8264 49.6157 17.8264C54.2391 17.8264 67.549 17.9903 68.4482 18.0014C68.4822 18.0018 68.5133 18.0019 68.5473 18.0022C71.8702 18.0297 74.5554 20.7319 74.5554 24.0613L72.6234 42.6782C72.6234 46.0246 69.9106 48.7375 66.5641 48.7375H20.9879C17.6414 48.7375 14.9286 46.0246 14.9286 42.6782L13.3479 17.8264Z" fill="url(#paint0_linear_16_8001)"/>
<rect x="20.6365" y="15.8945" width="46.6301" height="51.9868" rx="5.09769" fill="url(#paint1_linear_16_8001)"/>
<path d="M10.45 39.5172C10.45 35.6094 12.909 33.6335 18.2219 33.6335C22.7444 33.6335 30.9112 33.6335 39.0339 33.6335C44.1272 33.6335 45.9274 27.0474 49.9231 27.0474H71.7452C74.8492 27.0474 77.3654 29.5636 77.3654 32.6676L73.897 62.2614C73.5018 65.5984 71.3807 67.8816 68.2768 67.8816H19.0122C15.9083 67.8816 13.8311 65.3789 13.392 62.2614L10.45 39.5172Z" fill="#66A8FF"/>
<path d="M55.4995 49.9072C55.4995 55.8968 50.768 61.7346 44.78 61.7346C38.792 61.7346 33.8969 55.8968 33.8969 49.9072C33.8969 43.9175 38.792 40.0441 44.78 40.0441C50.768 40.0441 55.4995 43.9175 55.4995 49.9072Z" fill="#F0F7FF"/>
<path fill-rule="evenodd" clip-rule="evenodd" d="M47.9238 47.8552C48.1687 47.5754 48.594 47.547 48.8738 47.7919C49.1536 48.0367 49.182 48.462 48.9371 48.7418L43.7121 54.7133C43.5894 54.8535 43.4141 54.9366 43.2279 54.9428C43.0416 54.949 42.8612 54.8778 42.7294 54.746L40.4901 52.5067C40.2272 52.2438 40.2272 51.8175 40.4901 51.5546C40.753 51.2917 41.1793 51.2917 41.4422 51.5546L43.1727 53.2851L47.9238 47.8552Z" fill="#004299"/>
<defs>
<linearGradient id="paint0_linear_16_8001" x1="12.4696" y1="11.1718" x2="71.685" y2="52.8187" gradientUnits="userSpaceOnUse">
<stop stop-color="#4092FF"/>
<stop offset="1" stop-color="#0058CC"/>
</linearGradient>
<linearGradient id="paint1_linear_16_8001" x1="43.9515" y1="15.8945" x2="43.9515" y2="67.8814" gradientUnits="userSpaceOnUse">
<stop stop-color="#F0F7FF"/>
<stop offset="1" stop-color="#026FFF"/>
</linearGradient>
</defs>
</svg>
