<svg width="56" height="56" viewBox="0 0 56 56" fill="none" xmlns="http://www.w3.org/2000/svg">
<path d="M47.25 53.2656H8.75C3.92525 53.2656 0 49.3404 0 44.5156C0 39.6909 3.92525 35.7656 8.75 35.7656H47.25C52.0747 35.7656 56 39.6909 56 44.5156C56 49.3404 52.0747 53.2656 47.25 53.2656Z" fill="#F7F2F4"/>
<path d="M22.5312 47.25C24.0414 47.25 25.2656 46.0258 25.2656 44.5156C25.2656 43.0055 24.0414 41.7812 22.5312 41.7812C21.0211 41.7812 19.7969 43.0055 19.7969 44.5156C19.7969 46.0258 21.0211 47.25 22.5312 47.25Z" fill="#6D737F"/>
<path d="M11.5938 47.25C13.1039 47.25 14.3281 46.0258 14.3281 44.5156C14.3281 43.0055 13.1039 41.7812 11.5938 41.7812C10.0836 41.7812 8.85938 43.0055 8.85938 44.5156C8.85938 46.0258 10.0836 47.25 11.5938 47.25Z" fill="#6D737F"/>
<path d="M34.5625 17.1719H21.4375C20.5314 17.1719 19.7969 16.4373 19.7969 15.5312V10.9375C19.7969 6.4143 23.4768 2.73438 28 2.73438C32.5232 2.73438 36.2031 6.4143 36.2031 10.9375V15.5312C36.2031 16.4373 35.4686 17.1719 34.5625 17.1719ZM23.0781 13.8906H32.9219V10.9375C32.9219 8.22358 30.7139 6.01562 28 6.01562C25.2861 6.01562 23.0781 8.22358 23.0781 10.9375V13.8906Z" fill="#6D737F"/>
<path d="M28 2.73438V6.01562C30.7139 6.01562 32.9219 8.22358 32.9219 10.9375V13.8906H28V17.1719H34.5625C35.4686 17.1719 36.2031 16.4373 36.2031 15.5312V10.9375C36.2031 6.4143 32.5232 2.73438 28 2.73438Z" fill="#5E5F69"/>
<path d="M38.3906 30.1875H17.6094C16.7033 30.1875 15.9688 29.4529 15.9688 28.5469V15.5312C15.9688 14.6252 16.7033 13.8906 17.6094 13.8906H38.3906C39.2967 13.8906 40.0312 14.6252 40.0312 15.5312V28.5469C40.0312 29.4529 39.2967 30.1875 38.3906 30.1875Z" fill="#FFAC2B"/>
<path d="M38.3906 13.8906H28V30.1875H38.3906C39.2967 30.1875 40.0312 29.4529 40.0312 28.5469V15.5312C40.0312 14.6252 39.2967 13.8906 38.3906 13.8906Z" fill="#FF981E"/>
<path d="M30.7344 21C30.7344 20.0939 29.9998 19.3594 29.0938 19.3594H26.9062C26.0002 19.3594 25.2656 20.0939 25.2656 21C25.2656 21.714 25.7226 22.3198 26.3594 22.5453V23.1875C26.3594 24.0936 27.0939 24.8281 28 24.8281C28.9061 24.8281 29.6406 24.0936 29.6406 23.1875V22.5453C30.2774 22.3198 30.7344 21.714 30.7344 21Z" fill="#FF981E"/>
<path d="M47.25 35.7656H28V53.2656H47.25C52.0747 53.2656 56 49.3404 56 44.5156C56 39.6909 52.0747 35.7656 47.25 35.7656Z" fill="#DFDAE0"/>
<path d="M33.4688 47.25C34.9789 47.25 36.2031 46.0258 36.2031 44.5156C36.2031 43.0055 34.9789 41.7812 33.4688 41.7812C31.9586 41.7812 30.7344 43.0055 30.7344 44.5156C30.7344 46.0258 31.9586 47.25 33.4688 47.25Z" fill="#5E5F69"/>
<path d="M44.4062 47.25C45.9164 47.25 47.1406 46.0258 47.1406 44.5156C47.1406 43.0055 45.9164 41.7812 44.4062 41.7812C42.8961 41.7812 41.6719 43.0055 41.6719 44.5156C41.6719 46.0258 42.8961 47.25 44.4062 47.25Z" fill="#5E5F69"/>
<path d="M29.0938 19.3594H28V24.8281C28.9061 24.8281 29.6406 24.0936 29.6406 23.1875V22.5453C30.2774 22.3198 30.7344 21.714 30.7344 21C30.7344 20.0939 29.9998 19.3594 29.0938 19.3594Z" fill="#FF8512"/>
</svg>
