<svg width="28" height="28" viewBox="0 0 28 28" fill="none" xmlns="http://www.w3.org/2000/svg">
<path d="M18.9947 14.3646H8.05723C7.30215 14.3646 6.69006 13.7525 6.69006 12.9974V9.16931C6.69006 5.39997 9.75665 2.33337 13.526 2.33337C17.2953 2.33337 20.3619 5.39997 20.3619 9.16931V12.9974C20.3619 13.7525 19.7498 14.3646 18.9947 14.3646ZM9.4244 11.6302H17.6276V9.16931C17.6276 6.90771 15.7876 5.06774 13.526 5.06774C11.2644 5.06774 9.4244 6.90771 9.4244 9.16931V11.6302Z" fill="#6D737F"/>
<path d="M13.526 2.33337V5.06774C15.7876 5.06774 17.6276 6.90771 17.6276 9.16931V11.6302H13.526V14.3646H18.9948C19.7498 14.3646 20.3619 13.7525 20.3619 12.9974V9.16931C20.3619 5.39997 17.2953 2.33337 13.526 2.33337Z" fill="#5E5F69"/>
<path d="M22.1848 25.211H4.86717C4.11208 25.211 3.5 24.5988 3.5 23.8438V12.9974C3.5 12.2424 4.11208 11.6302 4.86717 11.6302H22.1848C22.9399 11.6302 23.552 12.2424 23.552 12.9974V23.8438C23.552 24.5988 22.9399 25.211 22.1848 25.211Z" fill="#FFAC2B"/>
<path d="M22.1848 11.6302H13.526V25.211H22.1848C22.9399 25.211 23.552 24.5988 23.552 23.8438V12.9974C23.552 12.2424 22.9399 11.6302 22.1848 11.6302Z" fill="#FF981E"/>
<path d="M15.8048 17.5547C15.8048 16.7996 15.1926 16.1875 14.4376 16.1875H12.6146C11.8596 16.1875 11.2474 16.7996 11.2474 17.5547C11.2474 18.1497 11.6283 18.6545 12.1589 18.8424V19.3776C12.1589 20.1327 12.771 20.7447 13.5261 20.7447C14.2812 20.7447 14.8933 20.1327 14.8933 19.3776V18.8424C15.4239 18.6545 15.8048 18.1497 15.8048 17.5547Z" fill="#FF981E"/>
<path d="M14.4375 16.1875H13.526V20.7447C14.2811 20.7447 14.8932 20.1327 14.8932 19.3776V18.8424C15.4238 18.6545 15.8047 18.1497 15.8047 17.5547C15.8047 16.7996 15.1925 16.1875 14.4375 16.1875Z" fill="#FF8512"/>
</svg>
