<svg width="24" height="24" viewBox="0 0 24 24" fill="none" xmlns="http://www.w3.org/2000/svg">
<path d="M9.46195 8.46195C9.75911 8.46195 10 8.70284 10 8.99999V11.4619C10 11.7591 9.75911 12 9.46195 12L7 12C6.70285 12 6.46195 11.7591 6.46195 11.462C6.46195 11.1648 6.70285 10.9239 7 10.9239L8.163 10.9239L5.15759 7.9185C4.94747 7.70838 4.94747 7.36771 5.15759 7.15759C5.36771 6.94747 5.70838 6.94747 5.9185 7.15759L8.92391 10.163V8.99999C8.92391 8.70284 9.1648 8.46195 9.46195 8.46195Z" fill="var(--fill-color, #000000)"/>
<path fill-rule="evenodd" clip-rule="evenodd" d="M21.45 13H11.55C11.2462 13 11 13.2239 11 13.5V19.5C11 19.7761 11.2462 20 11.55 20H21.45C21.7538 20 22 19.7761 22 19.5V13.5C22 13.2239 21.7538 13 21.45 13Z" fill="var(--fill-color, #000000)"/>
<path d="M4.13333 5.64706H15.8667C16.1612 5.64706 16.4 5.89286 16.4 6.19608V10.5882C16.4 10.5882 16.4 11.386 17.2 11.386C18 11.386 18 10.5882 18 10.5882V6.19608C18 4.98322 17.0449 4 15.8667 4H4.13333C2.95513 4 2 4.98322 2 6.19608V15.8039C2 17.0168 2.95513 18 4.13333 18H8.14479C8.14479 18 8.93333 18 8.93333 17.1765C8.93333 16.3529 8.14479 16.3529 8.14479 16.3529H4.13333C3.83878 16.3529 3.6 16.1071 3.6 15.8039V6.19608C3.6 5.89286 3.83878 5.64706 4.13333 5.64706Z" fill="var(--fill-color, #000000)"/>
</svg>
