<svg width="24" height="24" viewBox="0 0 24 24" fill="none" xmlns="http://www.w3.org/2000/svg">
<path d="M12.4229 19.7461L12.5 19.75H16.5C16.9142 19.75 17.25 19.4142 17.25 19C17.25 18.5858 16.9142 18.25 16.5 18.25H15.25L15.25 7.25L16.5 7.25C16.8882 7.25 17.2075 6.95512 17.2461 6.57715L17.25 6.5C17.25 6.08579 16.9142 5.75 16.5 5.75H12.5L12.4229 5.75391C12.0449 5.79253 11.75 6.11183 11.75 6.5L11.7539 6.57715C11.7899 6.92975 12.0702 7.21006 12.4229 7.24609L12.5 7.25L13.75 7.25L13.75 18.25H12.5L12.4229 18.2539C12.0449 18.2925 11.75 18.6118 11.75 19C11.75 19.3882 12.0449 19.7075 12.4229 19.7461Z" fill="black"/>
<path fill-rule="evenodd" clip-rule="evenodd" d="M11.9102 12.4102V17.1934L11.3574 15.6064H6.65625L5.82031 18H4.1123L7.58398 8.2002H10.4121L11.9102 12.4102ZM7.13574 14.2344H10.8809L9.26367 9.58594H8.75977L7.13574 14.2344Z" fill="var(--fill-color, #000000)"/>
</svg>
