<svg width="32" height="32" viewBox="0 0 32 32" fill="none" xmlns="http://www.w3.org/2000/svg">
<g opacity="0.2">
<path d="M24 8.80182C24 8.12525 23.719 7.47639 23.2189 6.99798C22.7188 6.51958 22.0405 6.25081 21.3333 6.25081H12.5819C12.3564 6.2515 12.2343 6.25081 11.9481 6.0686C11.6618 5.88638 11.2532 5.09514 10.8299 4.65306C10.4066 4.21098 9.67016 3.99902 9.14282 4C8.61547 4.00099 4.51675 4 3.80951 4C3.10227 4 2.37843 4.18823 1.92389 4.74718C1.46935 5.30612 1.14284 6.17687 1.14284 7.3441C1.14284 8.51133 1.14282 19.006 1.14282 19.006C1.14282 19.1026 1.18296 19.1953 1.2544 19.2637C1.32584 19.332 1.42274 19.3704 1.52377 19.3704H23.619C23.72 19.3704 23.8169 19.332 23.8884 19.2637C23.9598 19.1953 23.9999 19.1026 23.9999 19.006L24 8.80182Z" fill="#0058CC"/>
<path d="M1.14284 19.7347C1.14284 20.4113 1.4238 21.0601 1.92389 21.5385C2.42399 22.017 3.10227 22.2857 3.80951 22.2857H21.3333C22.0405 22.2857 22.7188 22.017 23.2189 21.5385C23.719 21.0601 24 20.4113 24 19.7347V8.80182C24 8.70517 23.9598 8.61258 23.8884 8.54424C23.8169 8.4759 23.72 8.4375 23.619 8.4375H1.5238C1.42276 8.4375 1.32587 8.4759 1.25442 8.54424C1.18298 8.61258 1.14284 8.70528 1.14284 8.80193V19.7347Z" fill="#0058CC"/>
</g>
<path opacity="0.2" d="M1.14282 9.71442C1.14282 8.45206 2.16617 7.42871 3.42854 7.42871H21.7142C22.9766 7.42871 24 8.45206 24 9.71443V20.0001C24 21.2625 22.9766 22.2859 21.7143 22.2859H3.42854C2.16617 22.2859 1.14282 21.2625 1.14282 20.0001V9.71442Z" fill="url(#paint0_linear_277_6736)"/>
<path d="M30 14.9894C30 14.2864 29.7173 13.6122 29.2141 13.1151C28.7108 12.618 28.0283 12.3387 27.3167 12.3387H18.5105C18.2836 12.3395 18.1608 12.3387 17.8728 12.1494C17.5847 11.9601 17.1736 11.1379 16.7476 10.6786C16.3216 10.2192 15.5806 9.99898 15.05 10C14.5194 10.001 10.395 10 9.68335 10C8.97169 10 8.24333 10.1956 7.78595 10.7764C7.32857 11.3571 7.00002 12.2619 7.00002 13.4747C7.00002 14.6876 7 25.5921 7 25.5921C7 25.6926 7.04039 25.7889 7.11228 25.8599C7.18416 25.9309 7.28167 25.9708 7.38333 25.9708H29.6166C29.7183 25.9708 29.8158 25.9309 29.8877 25.8599C29.9596 25.7889 30 25.6926 30 25.5921L30 14.9894Z" fill="#0058CC"/>
<path d="M7.00002 26.3493C7.00002 27.0523 7.28273 27.7265 7.78595 28.2236C8.28917 28.7207 8.97169 29 9.68335 29H27.3167C28.0283 29 28.7108 28.7207 29.2141 28.2236C29.7173 27.7265 30 27.0523 30 26.3493V14.9894C30 14.889 29.9596 14.7928 29.8877 14.7218C29.8158 14.6507 29.7183 14.6108 29.6167 14.6108H7.38336C7.28169 14.6108 7.18419 14.6507 7.1123 14.7218C7.04041 14.7928 7.00002 14.8891 7.00002 14.9895V26.3493Z" fill="#0058CC"/>
<path d="M7 15.7143C7 14.7675 7.76751 14 8.71429 14H28.2857C29.2325 14 30 14.7675 30 15.7143V27.2857C30 28.2325 29.2325 29 28.2857 29H8.71428C7.76751 29 7 28.2325 7 27.2857V15.7143Z" fill="url(#paint1_linear_277_6736)"/>
<path fill-rule="evenodd" clip-rule="evenodd" d="M19.1928 18.0766C19.0863 17.9745 18.9137 17.9745 18.8072 18.0766L17.4435 19.3851C17.337 19.4872 17.337 19.6529 17.4435 19.7551L18.8072 21.0635C18.9137 21.1657 19.0863 21.1657 19.1928 21.0635C19.2994 20.9613 19.2994 20.7957 19.1928 20.6935L18.2538 19.7924C18.4129 19.7771 18.6505 19.7664 19 19.7664C19.4855 19.7664 19.96 19.9045 20.3637 20.1633C20.7673 20.4221 21.0819 20.7899 21.2677 21.2202C21.4535 21.6506 21.5021 22.1241 21.4074 22.581C21.3127 23.0378 21.0789 23.4575 20.7356 23.7868C20.3924 24.1162 19.955 24.3405 19.4789 24.4314C19.0027 24.5223 18.5092 24.4756 18.0607 24.2974C17.6122 24.1191 17.2288 23.8172 16.9591 23.4299C16.6894 23.0426 16.5455 22.5873 16.5455 22.1215C16.5455 21.977 16.4234 21.8598 16.2727 21.8598C16.1221 21.8598 16 21.977 16 22.1215C16 22.6908 16.1759 23.2473 16.5056 23.7207C16.8352 24.1941 17.3038 24.563 17.8519 24.7809C18.4001 24.9988 19.0033 25.0558 19.5853 24.9447C20.1672 24.8336 20.7018 24.5595 21.1213 24.1569C21.5409 23.7543 21.8266 23.2414 21.9424 22.6831C22.0581 22.1247 21.9987 21.5459 21.7716 21.0199C21.5446 20.494 21.1601 20.0444 20.6667 19.7281C20.1734 19.4118 19.5933 19.243 19 19.243C18.7278 19.243 18.5135 19.2493 18.3451 19.2601L19.1928 18.4467C19.2994 18.3445 19.2994 18.1788 19.1928 18.0766Z" fill="white" stroke="white" stroke-width="0.3" stroke-linecap="round" stroke-linejoin="round"/>
<defs>
<linearGradient id="paint0_linear_277_6736" x1="0.81485" y1="7.18949" x2="23.9741" y2="22.3254" gradientUnits="userSpaceOnUse">
<stop stop-color="#4092FF"/>
<stop offset="1" stop-color="#0058CC"/>
</linearGradient>
<linearGradient id="paint1_linear_277_6736" x1="6.66998" y1="13.7585" x2="30.0205" y2="28.9685" gradientUnits="userSpaceOnUse">
<stop stop-color="#4092FF"/>
<stop offset="1" stop-color="#0058CC"/>
</linearGradient>
</defs>
</svg>
