<svg width="24" height="24" viewBox="0 0 24 24" fill="none" xmlns="http://www.w3.org/2000/svg">
<path fill-rule="evenodd" clip-rule="evenodd" d="M11.1305 17.6V6.5C11.1305 5.83726 10.5932 5.3 9.93049 5.3H6.45C5.78726 5.3 5.25 5.83726 5.25 6.5L5.25 17.6C5.25 18.2627 5.78726 18.8 6.45 18.8H9.93049C10.5932 18.8 11.1305 18.2627 11.1305 17.6Z" fill="var(--fill-color, #000000)"/>
<path fill-rule="evenodd" clip-rule="evenodd" d="M2.25 18.75C2.25 20.4069 3.59315 21.75 5.25 21.75H18.75C20.4069 21.75 21.75 20.4069 21.75 18.75V5.25C21.75 3.59315 20.4069 2.25 18.75 2.25H5.25C3.59315 2.25 2.25 3.59315 2.25 5.25V18.75ZM18.75 20.25C19.5784 20.25 20.25 19.5784 20.25 18.75V5.25C20.25 4.42157 19.5784 3.75 18.75 3.75H5.25C4.42157 3.75 3.75 4.42157 3.75 5.25V18.75C3.75 19.5784 4.42157 20.25 5.25 20.25H18.75Z" fill="var(--fill-color, #000000)"/>
</svg>
