<svg width="24" height="24" viewBox="0 0 24 24" fill="none" xmlns="http://www.w3.org/2000/svg">
<path d="M5.24994 7.72454V7.87494C5.24997 7.97415 5.28929 8.06932 5.35932 8.13958C5.42964 8.20991 5.52549 8.24994 5.62494 8.24994H5.77533L10.5624 13.037C10.1108 13.2245 9.6979 13.4992 9.34858 13.8486C8.81356 14.3836 8.45232 15.0677 8.31342 15.8115C8.17455 16.5552 8.26439 17.3235 8.57026 18.0156C8.87614 18.7076 9.38375 19.2914 10.0273 19.6894C10.6708 20.0874 11.4199 20.2815 12.1757 20.246C13.1082 20.2016 13.9902 19.8104 14.6503 19.1503C15.0009 18.7998 15.2749 18.3866 15.4619 17.9365L19.9824 22.457C19.8237 22.4829 19.6628 22.4999 19.4999 22.4999H4.49994C3.70432 22.4999 2.94145 22.1836 2.37885 21.621C1.81627 21.0584 1.49997 20.2955 1.49994 19.4999V4.49994C1.49994 4.33684 1.51597 4.17545 1.54194 4.01654L5.24994 7.72454Z" fill="var(--fill-color)"/>
<path d="M16.7949 1.49994C17.0905 1.49913 17.3841 1.55673 17.6572 1.66986C17.9301 1.78298 18.1783 1.94959 18.3867 2.15912L21.8408 5.61322C22.0503 5.82159 22.2169 6.0697 22.33 6.34271C22.4431 6.61565 22.5007 6.90861 22.4999 7.20404V19.4999C22.4999 19.6628 22.4829 19.8237 22.457 19.9824L10.7246 8.24994H13.8749C13.9744 8.24993 14.0702 8.20991 14.1406 8.13958C14.2106 8.06932 14.2499 7.97415 14.2499 7.87494V5.62494C14.2499 5.5255 14.2109 5.42963 14.1406 5.35931C14.0702 5.28898 13.9744 5.24994 13.8749 5.24994H7.72455L4.47454 1.99993C4.47454 1.99993 4.21994 1.69986 4.21994 1.5999C4.21994 1.49993 4.3368 1.49994 4.49994 1.49994H16.7949Z" fill="var(--fill-color)"/>
<path d="M14.2382 16.7128C14.1308 17.8555 13.1707 18.7499 11.9999 18.7499C10.7573 18.7499 9.75 17.7425 9.74994 16.4999C9.74994 15.3295 10.6438 14.3684 11.7861 14.2607L14.2382 16.7128Z" fill="var(--fill-color)"/>
<path d="M22.4471 23.1967C22.3486 23.1968 22.251 23.1775 22.16 23.1398C22.069 23.102 21.9864 23.0467 21.9169 22.9768L0.206266 1.26646C0.0715513 1.12466 -0.00244239 0.935848 6.15385e-05 0.740277C0.00256547 0.544705 0.081369 0.357849 0.21967 0.219548C0.357971 0.081247 0.544827 0.0024434 0.740399 -6.05318e-05C0.93597 -0.00256446 1.12478 0.0714292 1.26658 0.206144L22.9772 21.9165C23.082 22.0214 23.1534 22.155 23.1823 22.3005C23.2112 22.4459 23.1964 22.5966 23.1396 22.7336C23.0829 22.8706 22.9868 22.9878 22.8636 23.0702C22.7403 23.1526 22.5953 23.1966 22.4471 23.1967Z" fill="var(--fill-color)"/>
</svg>
