<svg width="538" height="164" viewBox="0 0 538 164" fill="none" xmlns="http://www.w3.org/2000/svg">
<g clip-path="url(#clip0_31438_83549)">
<path d="M434.942 150.632C433.51 150.4 432.085 150.284 430.676 150.264C431.062 149.369 431.383 148.444 431.618 147.487C434.352 136.398 425.469 125.614 411.777 123.4C400.105 121.513 388.712 126.467 383.91 134.838C381.113 132.819 377.64 131.357 373.699 130.719C365.09 129.326 356.66 132.254 351.814 137.649C350.414 137.193 348.948 136.831 347.416 136.582C334.094 134.428 321.14 141.428 318.48 152.216C316.423 160.566 321.136 168.733 329.546 173H453.587C455.986 162.68 447.69 152.692 434.942 150.632Z" fill="#CCE2FF"/>
<path d="M515.942 150.632C514.51 150.4 513.085 150.284 511.676 150.264C512.062 149.369 512.383 148.444 512.618 147.487C515.352 136.398 506.469 125.614 492.777 123.4C481.105 121.513 469.712 126.467 464.91 134.838C462.113 132.819 458.64 131.357 454.699 130.719C446.09 129.326 437.66 132.254 432.814 137.649C431.414 137.193 429.948 136.831 428.416 136.582C415.094 134.428 402.14 141.428 399.48 152.216C397.423 160.566 402.136 168.733 410.546 173H534.587C536.986 162.68 528.69 152.692 515.942 150.632Z" fill="#CCE2FF"/>
<path d="M79.3074 166.568C79.5101 166.27 79.7031 165.974 79.8877 165.68C80.2184 165.91 80.5712 166.115 80.9408 166.298C80.4076 166.356 79.8623 166.452 79.3074 166.568ZM119.192 135.014C117.845 135.84 116.561 136.773 115.34 137.779C115.339 137.141 115.297 136.517 115.207 135.911C113.939 127.365 104.229 125.771 93.5218 132.353C87.6292 135.968 82.6643 141.308 79.6033 146.801C75.9467 144.967 70.2657 145.763 64.2249 149.471C56.8924 153.98 51.1647 161.469 49.4021 168.157C47.6897 168.667 45.897 169.418 44.0625 170.409L75.4939 201.84C81.6452 197.911 86.7594 192.184 89.7687 186.377C91.6035 186.593 93.711 186.356 95.9656 185.678L137.65 143.993C138.22 141.925 138.411 139.932 138.143 138.128C137.034 130.661 128.549 129.267 119.192 135.014Z" fill="#CCE2FF"/>
<path d="M335.807 172.048C338.297 167.362 336.759 162.349 332.403 158.776C334.035 157.786 335.341 156.513 336.138 155.013C338.497 150.574 335.59 145.707 329.599 143.603C331.224 142.356 332.542 140.882 333.427 139.216C337.176 132.169 331.853 124.38 321.539 121.82C311.224 119.259 299.827 122.896 296.078 129.944C295.661 130.731 295.361 131.526 295.162 132.322C294.296 132.006 293.39 131.726 292.438 131.489C281.438 128.759 269.275 132.64 265.279 140.158C261.871 146.568 265.501 153.548 273.461 157.163C271.041 158.531 269.105 160.343 267.954 162.506C265.44 167.234 267.368 172.321 272.278 175.642C271.634 176.385 271.076 177.177 270.63 178.019C270.281 178.674 270.011 179.336 269.809 180H324.492C329.568 178.626 333.797 175.831 335.807 172.048Z" fill="#CCE2FF"/>
<path d="M300.954 166.048C303.137 161.362 301.788 156.349 297.97 152.776C299.401 151.786 300.546 150.513 301.244 149.013C303.312 144.574 300.764 139.707 295.512 137.603C296.936 136.356 298.091 134.882 298.867 133.216C302.154 126.169 297.487 118.38 288.446 115.82C279.402 113.259 269.41 116.896 266.123 123.944C265.757 124.731 265.495 125.526 265.32 126.322C264.561 126.006 263.766 125.726 262.932 125.489C253.288 122.759 242.625 126.64 239.122 134.158C236.133 140.568 239.316 147.548 246.294 151.163C244.173 152.531 242.475 154.343 241.466 156.506C239.262 161.234 240.953 166.321 245.258 169.642C244.693 170.385 244.204 171.177 243.812 172.019C243.507 172.674 243.27 173.336 243.093 174H291.034C295.484 172.626 299.192 169.831 300.954 166.048Z" fill="#CCE2FF"/>
<path d="M533.163 171.893C533.329 171.058 533.427 170.194 533.445 169.304C533.601 161.414 527.626 154.639 520.096 154.174C519.255 154.121 518.434 154.156 517.632 154.256C517.742 153.564 517.808 152.854 517.821 152.127C517.988 143.711 511.613 136.482 503.58 135.984C496.731 135.562 490.896 140.169 489.216 146.752C487.382 145.491 485.232 144.699 482.918 144.556C480.985 144.436 479.146 144.787 477.496 145.505L491.646 186.296L533.163 171.893Z" fill="#CCE2FF"/>
<path d="M244.447 132.387C245.638 131.382 246.6 130.248 247.258 129.006C250.401 123.078 245.507 116.979 236.324 115.385C228.014 113.941 219.042 116.682 215.085 121.609C207.356 121.472 199.846 124.685 197.22 129.636C195.086 133.663 196.755 137.767 200.98 140.421C197.22 141.24 194.022 143.152 192.664 145.717C190.472 149.847 193.885 154.097 200.282 155.209C200.847 155.307 201.416 155.37 201.985 155.414C201.97 155.442 201.949 155.468 201.935 155.496C199.576 159.941 203.248 164.516 210.134 165.712C217.022 166.907 224.515 164.273 226.871 159.83C227.296 159.024 227.523 158.216 227.57 157.425C227.746 157.458 227.917 157.494 228.092 157.524C239.105 159.438 251.089 155.226 254.86 148.115C258.305 141.614 253.686 134.942 244.447 132.387Z" fill="#CCE2FF"/>
<path d="M233.988 150.125C233.518 137.532 218.882 127.6 201.298 127.937C195.254 128.054 189.647 129.366 184.914 131.552C184.912 131.464 184.915 131.377 184.912 131.289C184.461 119.212 170.422 109.685 153.558 110.008C142.294 110.222 132.623 114.781 127.574 121.382C124.569 120.29 121.153 119.702 117.545 119.771C106.878 119.975 98.2907 125.856 97.2548 133.267C93.7101 132.335 89.8689 131.854 85.8669 131.93C68.9254 132.254 55.5573 142.351 56.0112 154.484C56.3094 162.456 62.5 169.32 71.5163 173H209.049C223.657 170.69 234.404 161.231 233.988 150.125Z" fill="#CCE2FF"/>
<path d="M419.153 146.069C409.213 141.554 397.326 143.803 390.298 150.905C388.418 148.287 385.75 146.061 382.395 144.537C375.062 141.208 366.503 142.149 360.392 146.325C359.275 145.559 358.065 144.868 356.76 144.275C345.415 139.122 331.459 143.018 325.591 152.975C321.713 159.553 322.336 167.128 326.473 173H429.983C435.008 162.999 430.365 151.162 419.153 146.069Z" fill="white"/>
<path d="M328.915 161.925C330.369 160.931 331.531 159.653 332.241 158.147C334.342 153.691 331.753 148.805 326.418 146.692C327.865 145.441 329.038 143.961 329.826 142.289C333.165 135.214 328.425 127.394 319.241 124.824C310.055 122.252 299.905 125.904 296.566 132.98C296.195 133.77 295.928 134.568 295.75 135.367C294.98 135.05 294.172 134.769 293.325 134.531C283.529 131.79 272.698 135.686 269.139 143.234C266.104 149.669 269.336 156.677 276.425 160.304C274.27 161.679 272.546 163.498 271.521 165.67C270.367 168.115 270.271 170.655 271.041 173H332.724C333.658 168.99 332.18 164.946 328.915 161.925Z" fill="white"/>
<path d="M285.915 170.925C287.369 169.931 288.531 168.653 289.241 167.147C291.342 162.691 288.753 157.805 283.418 155.692C284.865 154.441 286.038 152.961 286.826 151.289C290.165 144.214 285.425 136.394 276.241 133.824C267.055 131.252 256.905 134.904 253.566 141.98C253.195 142.77 252.928 143.568 252.75 144.367C251.98 144.05 251.172 143.769 250.325 143.531C240.529 140.79 229.698 144.686 226.139 152.234C223.104 158.669 226.336 165.677 233.425 169.304C231.27 170.679 229.546 172.498 228.521 174.67C227.367 177.115 227.271 179.655 228.041 182H289.724C290.658 177.99 289.18 173.946 285.915 170.925Z" fill="white"/>
<path d="M488.914 167.239C480.687 160.983 468.834 157.835 460.579 160.094C459.524 160.384 458.581 160.752 457.731 161.181C457.138 160.428 456.477 159.674 455.737 158.924C447.16 150.234 432.031 145.425 421.948 148.186C416.068 149.797 413.21 153.625 413.54 158.257L480.891 186.424L488.914 167.239Z" fill="white"/>
<path d="M248.758 185.191C248.646 184.241 248.342 183.335 247.876 182.487C248.068 182.482 248.254 182.479 248.439 182.47C260.177 181.923 268.9 174.675 267.926 166.283C267.032 158.61 258.335 152.638 247.881 152.094C248.37 150.754 248.558 149.332 248.387 147.867C247.576 140.87 238.986 135.569 229.2 136.028C220.343 136.441 213.548 141.431 212.942 147.561C205.48 149.219 200.383 154.367 201.06 160.209C201.614 164.963 205.844 168.91 211.581 170.728C208.52 172.47 206.698 175.237 207.052 178.264C207.618 183.139 213.605 186.833 220.423 186.514C221.024 186.487 221.608 186.419 222.179 186.333C222.182 186.365 222.179 186.399 222.184 186.433C222.333 187.714 222.833 188.915 223.604 190H247.534C248.494 188.555 248.957 186.913 248.758 185.191Z" fill="white"/>
<path d="M223.993 169.861C223.685 159.862 214.064 151.975 202.505 152.242C198.533 152.334 194.846 153.378 191.735 155.113C191.734 155.043 191.735 154.974 191.734 154.904C191.437 145.315 182.21 137.749 171.123 138.006C163.718 138.176 157.362 141.796 154.042 147.038C152.067 146.17 149.822 145.703 147.45 145.758C140.438 145.921 134.793 150.59 134.112 156.474C131.783 155.735 129.258 155.353 126.626 155.413C115.615 155.668 106.905 163.511 107.001 173H223.772C223.945 171.978 224.026 170.93 223.993 169.861Z" fill="white"/>
<path d="M269.744 81.549L262 134L286 132.267L276.867 81L269.744 81.549Z" fill="#CCE2FF"/>
<path d="M270.808 92.4768L265 138L283 136.496L276.15 92L270.808 92.4768Z" fill="white"/>
<path d="M273.746 82.788C270.44 82.871 267.614 86.5963 267.681 89.2458C267.748 91.8936 274.231 101.918 274.231 101.918C276.061 97.3287 280.196 91.5335 280.131 88.9303C280.065 86.3265 277.053 82.7039 273.746 82.788Z" fill="#F05A2A"/>
<path d="M273.752 82.9798C271.049 83.0476 268.74 86.0927 268.794 88.2557C268.849 90.4215 274.147 98.6133 274.147 98.6133C275.643 94.8625 279.023 90.1268 278.97 87.9994C278.915 85.8709 276.454 82.911 273.752 82.9798Z" fill="#F2AC09"/>
<path d="M273.751 82.9573C271.668 83.0097 269.89 85.3556 269.931 87.0235C269.973 88.6915 274.056 95.0037 274.056 95.0037C275.208 92.1137 277.813 88.4651 277.772 86.8248C277.73 85.1857 275.834 82.9048 273.751 82.9573Z" fill="white"/>
<path d="M271.241 84.1619C269.083 83.7346 266.707 85.7412 266.364 87.469C266.022 89.1973 268.769 96.6458 268.769 96.6458C270.625 93.9353 274.153 90.7772 274.489 89.0777C274.826 87.3792 273.399 84.5892 271.241 84.1619Z" fill="#F05A2A"/>
<path d="M271.216 84.2873C269.453 83.9373 267.511 85.5765 267.231 86.9893C266.951 88.4027 269.197 94.4902 269.197 94.4902C270.713 92.2742 273.596 89.693 273.871 88.3045C274.146 86.9159 272.98 84.6367 271.216 84.2873Z" fill="#F2AC09"/>
<path d="M271.219 84.2737C269.86 84.0034 268.364 85.2672 268.148 86.3554C267.932 87.4437 269.662 92.1348 269.662 92.1348C270.831 90.4279 273.053 88.4388 273.265 87.3686C273.477 86.2984 272.578 84.5413 271.219 84.2737Z" fill="white"/>
<path d="M272.229 83.6399C270.947 84.1964 270.43 86.1037 270.876 87.1293C271.322 88.156 275.45 91.0544 275.45 91.0544C275.439 88.9677 276.141 86.0427 275.702 85.0341C275.264 84.0248 273.511 83.0833 272.229 83.6399Z" fill="#F05A2A"/>
<path d="M272.261 83.7137C271.214 84.1681 270.792 85.7271 271.156 86.5664C271.52 87.4057 274.893 89.7742 274.893 89.7742C274.885 88.0678 275.457 85.678 275.1 84.8528C274.742 84.0281 273.308 83.2593 272.261 83.7137Z" fill="#F2AC09"/>
<path d="M272.257 83.7059C271.45 84.0553 271.125 85.257 271.406 85.9039C271.687 86.549 274.285 88.375 274.285 88.375C274.279 87.0604 274.721 85.2186 274.445 84.5831C274.169 83.9475 273.065 83.3554 272.257 83.7059Z" fill="white"/>
<path d="M265.462 67.3149C265.462 67.3149 261.388 69.6472 259.375 73.7738C256.82 79.0096 256.145 87.0304 257.139 87.5401C258.133 88.0509 259.334 84.1935 261.338 81.9318C264.653 78.1912 267.512 78.4147 267.512 78.4147L265.462 67.3149Z" fill="#0058CC"/>
<path d="M280.854 67.3149C280.854 67.3149 284.927 69.6472 286.94 73.7738C289.495 79.0096 290.169 87.0304 289.176 87.5401C288.182 88.0509 286.981 84.1935 284.977 81.9318C281.662 78.1912 278.803 78.4147 278.803 78.4147L280.854 67.3149Z" fill="#004299"/>
<path d="M279.132 84.9199C279.588 83.5054 282.654 73.5373 282.654 61.1539C282.654 50.9149 276.741 45.105 273.16 42.2337C269.579 45.105 263.666 50.9149 263.666 61.1539C263.666 73.5373 266.732 83.5054 267.189 84.9199H279.132Z" fill="#2B2B38"/>
<path d="M261.141 55.5378C261.141 71.2147 265.023 80.523 265.601 82.314H280.72C281.298 80.523 285.18 71.2147 285.18 55.5378C285.18 48.6284 283.053 42.122 280.38 37.0002H265.941C263.268 42.122 261.141 48.6284 261.141 55.5378Z" fill="#FCFCFC"/>
<path d="M273.161 27.3917C271.044 29.0895 268.283 32.5129 265.941 37.0002H280.38C278.038 32.5129 275.277 29.0895 273.161 27.3917Z" fill="#0058CC"/>
<path d="M280.38 37.0002H273.161V82.314H280.72C281.298 80.523 285.181 71.2147 285.181 55.5378C285.181 48.6284 283.053 42.122 280.38 37.0002Z" fill="#F3F3F7"/>
<path d="M273.159 43.7864C270.3 43.7864 267.981 46.1052 267.981 48.9647C267.981 51.8236 270.3 54.1423 273.159 54.1423C276.019 54.1423 278.337 51.8236 278.337 48.9647C278.337 46.1052 276.019 43.7864 273.159 43.7864Z" fill="#A5DCF0"/>
<path d="M277.322 51.3517C276.02 53.6501 273.101 54.4584 270.802 53.1551C268.503 51.8529 267.696 48.9325 268.999 46.6346C270.302 44.3356 273.22 43.529 275.519 44.8317C277.818 46.1339 278.625 49.0538 277.322 51.3517ZM278.502 52.0205C280.174 49.0707 279.138 45.3239 276.188 43.6515C273.238 41.9796 269.491 43.0154 267.819 45.9657C266.147 48.9161 267.183 52.6623 270.133 54.3353C273.083 56.0067 276.83 54.9709 278.502 52.0205Z" fill="#29293D"/>
<path d="M273.156 53.7778C272.356 53.7778 271.547 53.5775 270.802 53.1552C268.503 51.8531 267.696 48.9326 268.999 46.6348C269.88 45.0814 271.498 44.2088 273.165 44.2088C273.964 44.2088 274.774 44.4097 275.519 44.8319C277.818 46.1341 278.625 49.054 277.322 51.3518C276.441 52.9052 274.822 53.7778 273.156 53.7778ZM273.168 44.8415C272.303 44.8415 271.43 45.104 270.675 45.6498C269.132 46.7674 268.559 48.7283 269.131 50.4448C269.131 50.4448 270.604 48.5894 271.942 47.6214C273.239 46.6822 275.713 45.682 275.713 45.682C274.97 45.1294 274.073 44.8415 273.168 44.8415Z" fill="#E5F1FF"/>
<path d="M273.156 54.2214C272.282 54.2214 271.397 54.0024 270.583 53.5407C268.072 52.1172 267.189 48.9275 268.612 46.4157C269.575 44.7179 271.344 43.7651 273.165 43.7651C274.039 43.7651 274.924 43.9841 275.738 44.4452C278.249 45.8699 279.132 49.059 277.708 51.5714C276.746 53.2687 274.977 54.2214 273.156 54.2214ZM273.165 44.2087C271.498 44.2087 269.879 45.0814 268.999 46.6347C267.696 48.9326 268.503 51.853 270.802 53.1552C271.547 53.5774 272.356 53.7778 273.156 53.7778C274.822 53.7778 276.441 52.9051 277.322 51.3518C278.625 49.0539 277.818 46.134 275.519 44.8319C274.774 44.4097 273.964 44.2087 273.165 44.2087Z" fill="#666699"/>
<path d="M269.131 50.4446C268.559 48.7281 269.132 46.7672 270.675 45.6496C271.43 45.1038 272.303 44.8413 273.168 44.8413C274.073 44.8413 274.97 45.1292 275.713 45.6818C275.713 45.6818 273.239 46.682 271.942 47.6212C270.604 48.5893 269.131 50.4446 269.131 50.4446Z" fill="#F0F7FF"/>
<path d="M273.193 69.164H273.186C272.166 69.164 271.486 70.7445 271.486 72.8634C271.486 74.9835 271.712 87.5864 273.186 87.5864H273.189H273.193C274.666 87.5864 274.892 74.9835 274.892 72.8634C274.892 70.7445 274.213 69.164 273.193 69.164Z" fill="#0058CC"/>
<path d="M273.159 37.0002H280.38C278.038 32.5129 275.277 29.0895 273.16 27.3917L273.159 27.3928V37.0002Z" fill="#004299"/>
<path d="M273.193 69.164H273.189V87.5864H273.193C274.666 87.5864 274.892 74.9835 274.892 72.8634C274.892 70.7445 274.213 69.164 273.193 69.164Z" fill="#004299"/>
</g>
<defs>
<clipPath id="clip0_31438_83549">
<rect width="538" height="164" fill="white"/>
</clipPath>
</defs>
</svg>
